<svg xmlns="http://www.w3.org/2000/svg" width="27.867" height="25.439" viewBox="0 0 27.867 25.439">
  <path id="facebook-like" d="M14.717,28.439a.607.607,0,0,1-.606-.606V23.14l-2.423-6.208V4.211A1.96,1.96,0,0,1,13.506,3H25.014A2.412,2.412,0,0,1,27.02,6.767a2.436,2.436,0,0,1,1.628,2.29,2.392,2.392,0,0,1-.568,1.552,2.433,2.433,0,0,1,1.174,2.082,2.392,2.392,0,0,1-.568,1.552,2.427,2.427,0,0,1-1.249,4.5H18.578a19.955,19.955,0,0,1,.984,4.24c0,2.281-1.67,5.451-3.312,5.451ZM2.6,18.748a.613.613,0,0,1-.454-.208A.6.6,0,0,1,2,18.067L3.814,3.53A.61.61,0,0,1,4.42,3H9.871a.605.605,0,0,1,.606.606V18.143a.607.607,0,0,1-.606.606ZM7.751,7.24a.909.909,0,1,0-.909-.909A.909.909,0,0,0,7.751,7.24Z" transform="translate(-1.993 -3)" fill="#767676"/>
</svg>
