<svg xmlns="http://www.w3.org/2000/svg" width="27.867" height="25.439" viewBox="0 0 27.867 25.439">
  <path id="facebook-like" d="M14.717,3a.607.607,0,0,0-.606.606V8.3l-2.423,6.208v12.72a1.96,1.96,0,0,0,1.817,1.211H25.014a2.412,2.412,0,0,0,2.006-3.767,2.436,2.436,0,0,0,1.628-2.29,2.392,2.392,0,0,0-.568-1.552,2.433,2.433,0,0,0,1.174-2.082,2.392,2.392,0,0,0-.568-1.552,2.427,2.427,0,0,0-1.249-4.5H18.578a19.956,19.956,0,0,0,.984-4.24C19.563,6.17,17.892,3,16.25,3ZM2.6,12.691a.613.613,0,0,0-.454.208A.6.6,0,0,0,2,13.373L3.814,27.91a.61.61,0,0,0,.606.53H9.871a.605.605,0,0,0,.606-.606V13.3a.607.607,0,0,0-.606-.606ZM7.751,24.2a.909.909,0,1,1-.909.909A.909.909,0,0,1,7.751,24.2Z" transform="translate(-1.993 -3)" fill="#767676"/>
</svg>
