<svg xmlns="http://www.w3.org/2000/svg" xmlns:xlink="http://www.w3.org/1999/xlink" width="28.298" height="24.264" viewBox="0 0 28.298 24.264">
  <defs>
    <clipPath id="clip-path">
      <rect id="Rectangle_315" data-name="Rectangle 315" width="28.298" height="24.264" fill="#707070"/>
    </clipPath>
  </defs>
  <g id="Group_941" data-name="Group 941" transform="translate(0 0)">
    <g id="Group_940" data-name="Group 940" transform="translate(0 0)" clip-path="url(#clip-path)">
      <path id="Path_543" data-name="Path 543" d="M25.993,10.521c-.953,0-.928.148-6.179,3.855a2.315,2.315,0,0,0-2.162-1.5h-4.3c-.023-.014-1.944-1.209-1.967-1.221a5.461,5.461,0,0,0-7.029,1.589L2.048,16.43,1.041,15.423,0,16.464l7.513,7.513,1.041-1.041-.824-.824.884-.939c10.348,1.1,9.771,1.134,10.11.846.037-.032,8.869-7.546,8.9-7.582a2.3,2.3,0,0,0-1.634-3.916m.606,2.86-8.589,7.31-9.6-1.023c-.473-.048-.581.192-1.718,1.4L3.1,17.484l2.444-3.373a3.986,3.986,0,0,1,5.114-1.17l2.09,1.3c.288.179.235.111,4.9.111a.84.84,0,0,1,0,1.68H11.765V17.5h5.887A2.315,2.315,0,0,0,19.7,16.258l5.838-4.122A.823.823,0,0,1,26.6,13.382M3.524,21.72l1.5,1.507L3.974,24.264l-1.5-1.507ZM8.77,1.473h4.812V5.205a.737.737,0,0,0,.737.737h5.107a.737.737,0,0,0,.737-.737V1.473h4.125V9.968H25.76V.737A.737.737,0,0,0,25.023,0H8.034A.736.736,0,0,0,7.3.737V9.968H8.77Zm9.919,3H15.055v-3h3.634Zm-5.843,3.29h8.839V9.231H12.846Z" transform="translate(0 0)" fill="#707070"/>
    </g>
  </g>
</svg>
