<svg xmlns="http://www.w3.org/2000/svg" xmlns:xlink="http://www.w3.org/1999/xlink" width="77.12" height="78.669" viewBox="0 0 77.12 78.669">
  <defs>
    <clipPath id="clip-path">
      <path id="Path_689" data-name="Path 689" d="M0,0H77.12V-78.669H0Z" fill="none"/>
    </clipPath>
  </defs>
  <g id="Group_3248" data-name="Group 3248" transform="translate(0 78.669)">
    <g id="Group_2946" data-name="Group 2946" clip-path="url(#clip-path)">
      <g id="Group_2919" data-name="Group 2919" transform="translate(35.222 -31.548)">
        <path id="Path_662" data-name="Path 662" d="M0,0-31.8-22.187" fill="none" stroke="#fff" stroke-linecap="round" stroke-linejoin="round" stroke-width="1.6" stroke-dasharray="0 1.989"/>
      </g>
      <g id="Group_2920" data-name="Group 2920" transform="translate(1.223 -55.778)">
        <path id="Path_663" data-name="Path 663" d="M0,0A5.246,5.246,0,0,1-.23-4.883" fill="none" stroke="#fff" stroke-linecap="round" stroke-linejoin="round" stroke-width="1.6" stroke-dasharray="0 2.034"/>
      </g>
      <g id="Group_2921" data-name="Group 2921" transform="translate(2.617 -63.132)">
        <path id="Path_664" data-name="Path 664" d="M0,0,8.378-11.922" fill="none" stroke="#fff" stroke-linecap="round" stroke-linejoin="round" stroke-width="1.6" stroke-dasharray="0 1.943"/>
      </g>
      <g id="Group_2922" data-name="Group 2922" transform="translate(13.002 -77.267)">
        <path id="Path_665" data-name="Path 665" d="M0,0A5.165,5.165,0,0,1,4.865-.516" fill="none" stroke="#fff" stroke-linecap="round" stroke-linejoin="round" stroke-width="1.6" stroke-dasharray="0 2.039"/>
      </g>
      <g id="Group_2923" data-name="Group 2923" transform="translate(20.389 -76.152)">
        <path id="Path_666" data-name="Path 666" d="M0,0,31.8,22.187" fill="none" stroke="#fff" stroke-linecap="round" stroke-linejoin="round" stroke-width="1.6" stroke-dasharray="0 1.989"/>
      </g>
      <g id="Group_2924" data-name="Group 2924" transform="translate(54.388 -51.922)">
        <path id="Path_667" data-name="Path 667" d="M0,0A5.246,5.246,0,0,1,.23,4.883" fill="none" stroke="#fff" stroke-linecap="round" stroke-linejoin="round" stroke-width="1.6" stroke-dasharray="0 2.034"/>
      </g>
      <g id="Group_2925" data-name="Group 2925" transform="translate(52.994 -44.569)">
        <path id="Path_668" data-name="Path 668" d="M0,0-8.378,11.922" fill="none" stroke="#fff" stroke-linecap="round" stroke-linejoin="round" stroke-width="1.6" stroke-dasharray="0 1.943"/>
      </g>
      <g id="Group_2926" data-name="Group 2926" transform="translate(42.609 -30.434)">
        <path id="Path_669" data-name="Path 669" d="M0,0A5.162,5.162,0,0,1-4.865.516" fill="none" stroke="#fff" stroke-linecap="round" stroke-linejoin="round" stroke-width="1.6" stroke-dasharray="0 2.039"/>
      </g>
      <g id="Group_2927" data-name="Group 2927" transform="translate(2.603 -54.304)">
        <path id="Path_670" data-name="Path 670" d="M0,0H0M-1.1-7.238h0M8.95-21.544h0m7.205-1.443h0M50.4.907h0m1.1,7.238h0M41.453,22.452h0m-7.2,1.442h0" fill="none" stroke="#fff" stroke-linecap="round" stroke-linejoin="round" stroke-width="1.6"/>
      </g>
      <g id="Group_2928" data-name="Group 2928" transform="translate(44.8 -17.505)">
        <path id="Path_671" data-name="Path 671" d="M0,0-22.307-15.589" fill="none" stroke="#fff" stroke-linecap="round" stroke-linejoin="round" stroke-width="1.6" stroke-dasharray="0 2.016"/>
      </g>
      <g id="Group_2929" data-name="Group 2929" transform="translate(20.639 -35.073)">
        <path id="Path_672" data-name="Path 672" d="M0,0A5.481,5.481,0,0,1,.584-4.261" fill="none" stroke="#fff" stroke-linecap="round" stroke-linejoin="round" stroke-width="1.6" stroke-dasharray="0 1.768"/>
      </g>
      <g id="Group_2930" data-name="Group 2930" transform="translate(22.796 -41.666)">
        <path id="Path_673" data-name="Path 673" d="M0,0,8.313-11.849" fill="none" stroke="#fff" stroke-linecap="round" stroke-linejoin="round" stroke-width="1.6" stroke-dasharray="0 1.93"/>
      </g>
      <g id="Group_2931" data-name="Group 2931" transform="translate(32.841 -55.621)">
        <path id="Path_674" data-name="Path 674" d="M0,0A4.568,4.568,0,0,1,4.059-1.273" fill="none" stroke="#fff" stroke-linecap="round" stroke-linejoin="round" stroke-width="1.6" stroke-dasharray="0 1.77"/>
      </g>
      <g id="Group_2932" data-name="Group 2932" transform="translate(39.349 -55.363)">
        <path id="Path_675" data-name="Path 675" d="M0,0,22.307,15.589" fill="none" stroke="#fff" stroke-linecap="round" stroke-linejoin="round" stroke-width="1.6" stroke-dasharray="0 2.016"/>
      </g>
      <g id="Group_2933" data-name="Group 2933" transform="translate(63.51 -37.795)">
        <path id="Path_676" data-name="Path 676" d="M0,0A5.481,5.481,0,0,1-.584,4.261" fill="none" stroke="#fff" stroke-linecap="round" stroke-linejoin="round" stroke-width="1.6" stroke-dasharray="0 1.768"/>
      </g>
      <g id="Group_2934" data-name="Group 2934" transform="translate(61.353 -31.203)">
        <path id="Path_677" data-name="Path 677" d="M0,0-8.313,11.849" fill="none" stroke="#fff" stroke-linecap="round" stroke-linejoin="round" stroke-width="1.6" stroke-dasharray="0 1.93"/>
      </g>
      <g id="Group_2935" data-name="Group 2935" transform="translate(51.308 -17.247)">
        <path id="Path_678" data-name="Path 678" d="M0,0A4.567,4.567,0,0,1-4.058,1.273" fill="none" stroke="#fff" stroke-linecap="round" stroke-linejoin="round" stroke-width="1.6" stroke-dasharray="0 1.77"/>
      </g>
      <g id="Group_2936" data-name="Group 2936" transform="translate(21.667 -33.671)">
        <path id="Path_679" data-name="Path 679" d="M0,0H0M.021-6.415h0M10-20.634h0m6.032-2.213h0M40.814-5.526h0M40.794.888h0m-9.976,14.22h0m-6.033,2.213h0" fill="none" stroke="#fff" stroke-linecap="round" stroke-linejoin="round" stroke-width="1.6"/>
      </g>
      <g id="Group_2937" data-name="Group 2937" transform="translate(58.316 -1.943)">
        <path id="Path_680" data-name="Path 680" d="M0,0-15.837-11.1" fill="none" stroke="#fff" stroke-linecap="round" stroke-linejoin="round" stroke-width="1.6" stroke-dasharray="0 2.035"/>
      </g>
      <g id="Group_2938" data-name="Group 2938" transform="translate(40.914 -15.534)">
        <path id="Path_681" data-name="Path 681" d="M0,0A7.055,7.055,0,0,1,.945-3.031" fill="none" stroke="#fff" stroke-linecap="round" stroke-linejoin="round" stroke-width="1.6" stroke-dasharray="0 2.135"/>
      </g>
      <g id="Group_2939" data-name="Group 2939" transform="translate(43.524 -21.042)">
        <path id="Path_682" data-name="Path 682" d="M0,0,8.248-11.785" fill="none" stroke="#fff" stroke-linecap="round" stroke-linejoin="round" stroke-width="1.6" stroke-dasharray="0 1.918"/>
      </g>
      <g id="Group_2940" data-name="Group 2940" transform="translate(53.725 -35.215)">
        <path id="Path_683" data-name="Path 683" d="M0,0A4.8,4.8,0,0,1,2.811-1.4" fill="none" stroke="#fff" stroke-linecap="round" stroke-linejoin="round" stroke-width="1.6" stroke-dasharray="0 2.135"/>
      </g>
      <g id="Group_2941" data-name="Group 2941" transform="translate(59.215 -35.177)">
        <path id="Path_684" data-name="Path 684" d="M0,0,15.837,11.1" fill="none" stroke="#fff" stroke-linecap="round" stroke-linejoin="round" stroke-width="1.6" stroke-dasharray="0 2.035"/>
      </g>
      <g id="Group_2942" data-name="Group 2942" transform="translate(76.617 -21.586)">
        <path id="Path_685" data-name="Path 685" d="M0,0A7.055,7.055,0,0,1-.945,3.031" fill="none" stroke="#fff" stroke-linecap="round" stroke-linejoin="round" stroke-width="1.6" stroke-dasharray="0 2.135"/>
      </g>
      <g id="Group_2943" data-name="Group 2943" transform="translate(74.007 -16.079)">
        <path id="Path_686" data-name="Path 686" d="M0,0-8.248,11.785" fill="none" stroke="#fff" stroke-linecap="round" stroke-linejoin="round" stroke-width="1.6" stroke-dasharray="0 1.918"/>
      </g>
      <g id="Group_2944" data-name="Group 2944" transform="translate(63.806 -1.906)">
        <path id="Path_687" data-name="Path 687" d="M0,0A4.8,4.8,0,0,1-2.811,1.4" fill="none" stroke="#fff" stroke-linecap="round" stroke-linejoin="round" stroke-width="1.6" stroke-dasharray="0 2.135"/>
      </g>
      <g id="Group_2945" data-name="Group 2945" transform="translate(41.646 -13.622)">
        <path id="Path_688" data-name="Path 688" d="M0,0H0M.779-5.849h0m9.9-14.142h0M15.9-22.723h0M34.24-9.876h0m-.778,5.848h0m-9.9,14.142h0m-5.226,2.733h0" fill="none" stroke="#fff" stroke-linecap="round" stroke-linejoin="round" stroke-width="1.6"/>
      </g>
    </g>
  </g>
</svg>
