<svg xmlns="http://www.w3.org/2000/svg" xmlns:xlink="http://www.w3.org/1999/xlink" width="33.715" height="35.337" viewBox="0 0 33.715 35.337"><defs><clipPath id="a"><rect width="33.715" height="35.337" fill="#fff"/></clipPath></defs><g transform="translate(0)"><g transform="translate(0)" clip-path="url(#a)"><path d="M145.415,81.656a.648.648,0,0,0,1.3,0V79.4l4.153-4.153a.648.648,0,0,0-.917-.917l-3.236,3.236V73.513l2.985-2.985a.648.648,0,0,0-.917-.917l-2.068,2.068V67.767a.648.648,0,0,0-1.3,0Z" transform="translate(-121.008 -55.853)" fill="#fff"/><path d="M33.716,20.64V15.5A8.652,8.652,0,0,0,20.971,7.867,10.673,10.673,0,0,0,0,10.674v6.434A10.692,10.692,0,0,0,7.337,27.246v2.808c0,2.641-1.178,3.707-1.564,3.986H.648a.648.648,0,1,0,0,1.3H33.067a.648.648,0,1,0,0-1.3H29.015a3.671,3.671,0,0,1-1.162-3.055V28.834a8.674,8.674,0,0,0,5.863-8.194M25.055,8.135A7.372,7.372,0,0,1,32.419,15.5V20.64a7.36,7.36,0,0,1-13.793,3.58,10.63,10.63,0,0,0,2.723-7.112V10.674a10.705,10.705,0,0,0-.1-1.472,7.317,7.317,0,0,1,3.811-1.067M21.1,34.04H15.577c-.373-.276-1.565-1.364-1.565-3.986V27.246a10.672,10.672,0,0,0,3.662-2.088,8.7,8.7,0,0,0,4.585,3.678v2.15A3.645,3.645,0,0,1,21.1,34.04M1.3,17.109V10.674a9.378,9.378,0,1,1,18.755,0v6.434a9.378,9.378,0,1,1-18.755,0M8.634,30.054V27.585a10.624,10.624,0,0,0,4.08,0v2.469a6.809,6.809,0,0,0,1.1,3.986H7.533a6.808,6.808,0,0,0,1.1-3.986M27.326,34.04H22.785a5.718,5.718,0,0,0,.77-3.055V29.17a8.615,8.615,0,0,0,3,0v1.817a5.718,5.718,0,0,0,.77,3.055" fill="#fff"/><path d="M34.085,51.035v-2.9l5.245-5.245a.648.648,0,1,0-.917-.917l-4.328,4.328V40.779l3.784-3.784a.649.649,0,0,0-.917-.917l-2.867,2.867V33.655a.648.648,0,1,0-1.3,0v5.289l-2.867-2.867a.648.648,0,0,0-.917.917l3.784,3.784v5.527L28.46,41.978a.648.648,0,1,0-.917.917l5.245,5.245v2.9a.648.648,0,1,0,1.3,0" transform="translate(-22.762 -27.467)" fill="#fff"/></g></g></svg>