<svg id="Group_943" data-name="Group 943" xmlns="http://www.w3.org/2000/svg" xmlns:xlink="http://www.w3.org/1999/xlink" width="34.424" height="24.32" viewBox="0 0 34.424 24.32">
  <defs>
    <clipPath id="clip-path">
      <rect id="Rectangle_316" data-name="Rectangle 316" width="34.424" height="24.32" fill="#707070"/>
    </clipPath>
  </defs>
  <g id="Group_942" data-name="Group 942" transform="translate(0 0)" clip-path="url(#clip-path)">
    <path id="Path_544" data-name="Path 544" d="M6.137,4.9H4.383V.877A.877.877,0,0,1,5.26,0H20.707a.877.877,0,0,1,.877.877V15.256a.877.877,0,0,1-.877.877H16.061V14.379H19.83V1.755H6.137Zm1.492,9.477H5.26v1.755H7.629Zm19.528-2.572,1.44-1c-1.691-2.429-1.732-2.686-2.328-2.686H23.686V9.874h2.125Zm7.267,7.307v1.755H4.576V19.114H9.613a3.121,3.121,0,1,1,4.607,0h9.96A3.122,3.122,0,0,1,28.3,14.477v-.1H30.8V11.05L27.718,6.392H22.447V4.637c6.132,0,6.121-.142,6.475.393,3.781,5.719,3.63,5.391,3.63,5.755,0,6.045.628,5.348-3.072,5.348a3.1,3.1,0,0,1-.693,2.98Zm-9.31-2.1a1.369,1.369,0,1,0,1.369-1.37,1.371,1.371,0,0,0-1.369,1.37m-14.567,0a1.369,1.369,0,1,0,1.369-1.37,1.371,1.371,0,0,0-1.369,1.37M9.856,24.32h2.106V22.565H9.856Zm-4.212,0H7.75V22.565H5.645Zm25.27,0H33.02V22.565H30.914Zm-4.212,0h2.106V22.565H26.7Zm-4.212,0H24.6V22.565H22.491Zm-8.423,0h2.106V22.565H14.068Zm4.212,0h2.106V22.565H18.279ZM8.511,12.1H0V13.85H8.511ZM9.652,8.923H3.6v1.755H9.652ZM12.679,5.75H1.755V7.505H12.679Z" transform="translate(0 0)" fill="#707070"/>
  </g>
</svg>
