<svg xmlns="http://www.w3.org/2000/svg" xmlns:xlink="http://www.w3.org/1999/xlink" width="27.727" height="23.822" viewBox="0 0 27.727 23.822">
  <defs>
    <clipPath id="clip-path">
      <rect id="Rectangle_317" data-name="Rectangle 317" width="27.727" height="23.822" fill="#707070"/>
    </clipPath>
  </defs>
  <g id="Group_945" data-name="Group 945" transform="translate(0 0)">
    <g id="Group_944" data-name="Group 944" transform="translate(0 0)" clip-path="url(#clip-path)">
      <path id="Path_545" data-name="Path 545" d="M12.29,7.064h7.284V8.958h1.648V7.064h.887a.824.824,0,0,0,.824-.824V.824A.824.824,0,0,0,22.108,0H.824A.824.824,0,0,0,0,.824V6.24a.824.824,0,0,0,.824.824H1.71V18.687a.824.824,0,0,0,.824.824H13.274V17.863H12.29ZM1.648,1.648H21.284V5.416H1.648Zm1.71,5.416h7.284v10.8H3.358Zm19.753,7.5,1.2,1.131c-3.919,4.152-3.738,4.1-4.223,4.1-.5,0-.467-.105-2.928-2.936L18.4,15.77l1.71,1.966ZM20.727,9.824a7,7,0,1,0,7,7,7.007,7.007,0,0,0-7-7m0,12.351a5.351,5.351,0,1,1,5.351-5.351,5.357,5.357,0,0,1-5.351,5.351" transform="translate(0 0)" fill="#707070"/>
    </g>
  </g>
</svg>
