<svg id="Group_939" data-name="Group 939" xmlns="http://www.w3.org/2000/svg" xmlns:xlink="http://www.w3.org/1999/xlink" width="22.153" height="24.467" viewBox="0 0 22.153 24.467">
  <defs>
    <clipPath id="clip-path">
      <rect id="Rectangle_314" data-name="Rectangle 314" width="22.153" height="24.467" transform="translate(0 0)" fill="#707070"/>
    </clipPath>
  </defs>
  <g id="Group_938" data-name="Group 938" transform="translate(0 0)" clip-path="url(#clip-path)">
    <path id="Path_542" data-name="Path 542" d="M12.983,1.927,12.272.73,13.5,0l1.157,1.949L13.514,3.77,12.3,3.009Zm-1.335,19.5L10.416,20.7,9.324,22.553l1.213,1.914,1.208-.765L11,22.526Zm7.439-16.8-1.034.988a9.647,9.647,0,0,1-5.986,16.252l.145,1.423A11.078,11.078,0,0,0,19.087,4.622M11.721,2.648l.094-1.427a11.085,11.085,0,0,0-9.1,18.3l1.08-.938a9.654,9.654,0,0,1,7.923-15.94M15.775,17.8h-9.6a.715.715,0,0,1-.715-.715V11.105h-.2a.715.715,0,0,1-.715-.715V7.479a.715.715,0,0,1,.715-.715H16.695a.715.715,0,0,1,.715.715V10.39a.715.715,0,0,1-.715.715h-.2v5.976a.715.715,0,0,1-.715.715M5.969,9.675H15.98V8.194H5.969Zm.92,6.691h3.371V11.105H6.888Zm8.172-5.261H11.689v5.261H15.06Z" transform="translate(0 0)" fill="#707070"/>
  </g>
</svg>
