<svg id="Group_3312" data-name="Group 3312" xmlns="http://www.w3.org/2000/svg" xmlns:xlink="http://www.w3.org/1999/xlink" width="65" height="60.071" viewBox="0 0 65 60.071">
  <defs>
    <clipPath id="clip-path">
      <rect id="Rectangle_637" data-name="Rectangle 637" width="65" height="60.071" fill="none"/>
    </clipPath>
    <clipPath id="clip-path-3">
      <rect id="Rectangle_634" data-name="Rectangle 634" width="65" height="32.841" fill="none"/>
    </clipPath>
    <clipPath id="clip-path-4">
      <path id="Path_759" data-name="Path 759" d="M11.24,100.5.32,106.231l-.227.139-.092.2v.246l.092.292.227.154,32.613,15.073.185.077h.339l.277-.108.2-.154L65,103.274,53.6,98.413,33.569,110.554l-.2.047-.267.031-.173-.079-.662-.283Z" transform="translate(0 -98.413)" fill="none"/>
    </clipPath>
    <clipPath id="clip-path-5">
      <rect id="Rectangle_635" data-name="Rectangle 635" width="64.234" height="38.119" fill="none"/>
    </clipPath>
    <clipPath id="clip-path-6">
      <path id="Path_764" data-name="Path 764" d="M9.828,152.331.5,157.188l-.085.164-.092.205v6.066l33.031,15.027h.575l.288-.144,30.2-18.291.144-.431v-5.645l-.144-.349-8.955-3.773L33.985,163.1l-.277.108h-.339l-.377-.166Z" transform="translate(-0.318 -150.018)" fill="none"/>
    </clipPath>
  </defs>
  <g id="Group_3311" data-name="Group 3311" clip-path="url(#clip-path)">
    <g id="Group_3310" data-name="Group 3310">
      <g id="Group_3309" data-name="Group 3309" clip-path="url(#clip-path)">
        <path id="Path_755" data-name="Path 755" d="M33.094.556,1.425,17.13A.486.486,0,0,0,1.447,18L33.964,33a.486.486,0,0,0,.455-.026L64.68,14.642a.486.486,0,0,0-.062-.863L33.51.539a.485.485,0,0,0-.416.017m.756,30.434L5.483,17.9a.486.486,0,0,1-.022-.872l27.712-14.5a.485.485,0,0,1,.416-.017L60.721,14.057a.486.486,0,0,1,.061.863L34.306,30.964a.486.486,0,0,1-.455.026" transform="translate(-0.921 -0.395)" fill="#fff"/>
        <path id="Path_756" data-name="Path 756" d="M33.094.556,1.425,17.13A.486.486,0,0,0,1.447,18L33.964,33a.486.486,0,0,0,.455-.026L64.68,14.642a.486.486,0,0,0-.062-.863L33.51.539A.485.485,0,0,0,33.094.556Zm.756,30.434L5.483,17.9a.486.486,0,0,1-.022-.872l27.712-14.5a.485.485,0,0,1,.416-.017L60.721,14.057a.486.486,0,0,1,.061.863L34.306,30.964A.486.486,0,0,1,33.85,30.989Z" transform="translate(-0.921 -0.395)" fill="none" stroke="#fff" stroke-miterlimit="10" stroke-width="1"/>
        <g id="Group_3303" data-name="Group 3303" transform="translate(0 11.782)" opacity="0.3">
          <g id="Group_3302" data-name="Group 3302">
            <g id="Group_3301" data-name="Group 3301" clip-path="url(#clip-path-3)">
              <g id="Group_3300" data-name="Group 3300" transform="translate(0 8.842)">
                <g id="Group_3299" data-name="Group 3299" clip-path="url(#clip-path-4)">
                  <path id="Path_757" data-name="Path 757" d="M64.618,70,33.509,56.761a.486.486,0,0,0-.416.017L1.425,73.352a.486.486,0,0,0,.022.871l32.517,15a.486.486,0,0,0,.455-.026L64.679,70.863A.486.486,0,0,0,64.618,70M45.357,63.74,49.251,65.4,20.675,81.128l0,.006L16.915,79.4Zm-30.2,14.845-4.135-1.908L39.247,61.139l4.286,1.824Zm35.92-12.412,4.14,1.762-28.028,16.2-4.756-2.194ZM5.46,73.251l27.712-14.5a.486.486,0,0,1,.416-.017l3.834,1.632L9.26,75.866,5.482,74.123a.486.486,0,0,1-.022-.872m55.321-2.11L34.3,87.186a.486.486,0,0,1-.455.026l-4.929-2.274L57.011,68.7l3.709,1.578a.486.486,0,0,1,.062.863" transform="translate(-0.92 -65.459)" fill="#fff"/>
                  <path id="Path_758" data-name="Path 758" d="M64.618,70,33.509,56.761a.486.486,0,0,0-.416.017L1.425,73.352a.486.486,0,0,0,.022.871l32.517,15a.486.486,0,0,0,.455-.026L64.679,70.863A.486.486,0,0,0,64.618,70ZM45.357,63.74,49.251,65.4,20.675,81.128l0,.006L16.915,79.4Zm-30.2,14.845-4.135-1.908L39.247,61.139l4.286,1.824Zm35.92-12.412,4.14,1.762-28.028,16.2-4.756-2.194ZM5.46,73.251l27.712-14.5a.486.486,0,0,1,.416-.017l3.834,1.632L9.26,75.866,5.482,74.123A.486.486,0,0,1,5.46,73.251Zm55.321-2.11L34.3,87.186a.486.486,0,0,1-.455.026l-4.929-2.274L57.011,68.7l3.709,1.578A.486.486,0,0,1,60.782,71.141Z" transform="translate(-0.92 -65.459)" fill="none" stroke="#fff" stroke-miterlimit="10" stroke-width="1"/>
                </g>
              </g>
            </g>
          </g>
        </g>
        <g id="Group_3308" data-name="Group 3308" transform="translate(0.067 21.952)" opacity="0.3">
          <g id="Group_3307" data-name="Group 3307">
            <g id="Group_3306" data-name="Group 3306" clip-path="url(#clip-path-5)">
              <g id="Group_3305" data-name="Group 3305" transform="translate(0 9.486)">
                <g id="Group_3304" data-name="Group 3304" clip-path="url(#clip-path-6)">
                  <path id="Path_760" data-name="Path 760" d="M33.454,105.306,1.785,121.88a.486.486,0,0,0,.022.872l32.517,15a.486.486,0,0,0,.455-.026L65.04,119.392a.486.486,0,0,0-.062-.863L33.87,105.289a.485.485,0,0,0-.416.017m.756,30.434L5.843,122.651a.486.486,0,0,1-.022-.872l27.712-14.5a.485.485,0,0,1,.416-.017l27.132,11.548a.486.486,0,0,1,.061.863L34.666,135.714a.486.486,0,0,1-.455.026" transform="translate(-1.272 -114.632)" fill="#fff"/>
                  <path id="Path_761" data-name="Path 761" d="M33.454,105.306,1.785,121.88a.486.486,0,0,0,.022.872l32.517,15a.486.486,0,0,0,.455-.026L65.04,119.392a.486.486,0,0,0-.062-.863L33.87,105.289A.485.485,0,0,0,33.454,105.306Zm.756,30.434L5.843,122.651a.486.486,0,0,1-.022-.872l27.712-14.5a.485.485,0,0,1,.416-.017l27.132,11.548a.486.486,0,0,1,.061.863L34.666,135.714A.486.486,0,0,1,34.21,135.739Z" transform="translate(-1.272 -114.632)" fill="none" stroke="#fff" stroke-miterlimit="10" stroke-width="1"/>
                  <path id="Path_762" data-name="Path 762" d="M1.525,174.805v5.666l32.8,15,.455-.026L65.04,177.111l.234-.5v-4.968l-.234.228L34.779,190.209l-.455.026L3.5,176.012l-1.692-.781Z" transform="translate(-1.272 -167.112)" fill="#fff"/>
                  <path id="Path_763" data-name="Path 763" d="M1.525,174.805v5.666l32.8,15,.455-.026L65.04,177.111l.234-.5v-4.968l-.234.228L34.779,190.209l-.455.026L3.5,176.012l-1.692-.781Z" transform="translate(-1.272 -167.112)" fill="none" stroke="#fff" stroke-miterlimit="10" stroke-width="1"/>
                </g>
              </g>
            </g>
          </g>
        </g>
      </g>
    </g>
  </g>
</svg>
