<svg width="21" height="19" viewBox="0 0 21 19" fill="none" xmlns="http://www.w3.org/2000/svg">
<path d="M10.5 19C10.3892 19.0001 10.2795 18.9784 10.1771 18.9363C10.0748 18.8941 9.98178 18.8322 9.90354 18.7541L1.85011 10.7428C-0.616704 8.28891 -0.616704 4.29586 1.85011 1.84195C4.21907 -0.516284 8.01631 -0.611117 10.5 1.56333C12.982 -0.608599 16.7792 -0.517123 19.1499 1.84195C21.6167 4.29586 21.6167 8.28975 19.1499 10.7428L11.0965 18.7541C11.0182 18.8322 10.9252 18.8941 10.8229 18.9363C10.7205 18.9784 10.6108 19.0001 10.5 19ZM6.3248 1.6783C5.71541 1.67724 5.11181 1.7959 4.54863 2.02748C3.98546 2.25906 3.4738 2.599 3.04303 3.02778C2.17393 3.89394 1.68581 5.06775 1.68581 6.29155C1.68581 7.51535 2.17393 8.68915 3.04303 9.55531L10.5 16.9733L17.957 9.55531C18.8261 8.68915 19.3142 7.51535 19.3142 6.29155C19.3142 5.06775 18.8261 3.89394 17.957 3.02778C17.0863 2.16323 15.9063 1.67767 14.676 1.67767C13.4458 1.67767 12.2658 2.16323 11.3951 3.02778L11.0965 3.32487C11.0182 3.40287 10.9252 3.46476 10.8229 3.50698C10.7205 3.5492 10.6108 3.57093 10.5 3.57093C10.3892 3.57093 10.2795 3.5492 10.1771 3.50698C10.0748 3.46476 9.98182 3.40287 9.90354 3.32487L9.60489 3.02778C9.17446 2.59901 8.6631 2.25907 8.1002 2.02748C7.5373 1.7959 6.93395 1.67723 6.3248 1.6783Z" fill="black"/>
</svg>
