<svg width="24" height="24" viewBox="0 0 24 24" fill="none" xmlns="http://www.w3.org/2000/svg">
<g clip-path="url(#clip0_44_15)">
<path d="M22.8 21.4L17.9 16.5C19.3 14.8 20.2 12.5 20.2 10.1C20.1 4.5 15.6 0 10.1 0C4.6 0 0 4.5 0 10.1C0 15.7 4.5 20.2 10.1 20.2C12.5 20.2 14.7 19.3 16.5 17.9L21.4 22.8C21.6 23 21.9 23.1 22.1 23.1C22.3 23.1 22.6 23 22.8 22.8C23.2 22.4 23.2 21.7 22.8 21.4ZM10.1 18C5.7 18 2.2 14.4 2.2 10.1C2.2 5.8 5.8 2.2 10.1 2.2C14.4 2.2 18 5.7 18 10.1C18 14.5 14.4 18 10.1 18Z" fill="black"/>
</g>
<defs>
<clipPath id="clip0_44_15">
<rect width="24" height="24" fill="white"/>
</clipPath>
</defs>
</svg>
