<svg width="22" height="27" viewBox="0 0 22 27" fill="none" xmlns="http://www.w3.org/2000/svg">
<g clip-path="url(#clip0_42_2)">
<path d="M16.6 12.6C17.8 11.2 18.5 9.5 18.5 7.6C18.5 3.4 15.1 0 10.9 0C6.7 0 3.3 3.4 3.3 7.6C3.3 9.5 4 11.3 5.2 12.6C2.2 13.9 0 17 0 20.5V25.1C0 25.6 0.4 26.1 1 26.1H20.8C21.3 26.1 21.8 25.7 21.8 25.1V20.5C21.8 17 19.6 13.9 16.6 12.6ZM19.9 24.1H1.9V20.5C1.9 17.4 4 14.8 6.9 14.1C8.1 14.8 9.4 15.2 10.8 15.2C12.2 15.2 13.6 14.8 14.7 14.1C17.6 14.8 19.7 17.4 19.7 20.5L19.9 24.1ZM5.2 7.6C5.2 4.5 7.8 1.9 10.9 1.9C14 1.9 16.6 4.5 16.6 7.6C16.6 10.7 14 13.3 10.9 13.3C7.8 13.2 5.2 10.7 5.2 7.6Z" fill="black"/>
</g>
<defs>
<clipPath id="clip0_42_2">
<rect width="21.76" height="26.06" fill="white"/>
</clipPath>
</defs>
</svg>
