<?xml version="1.0" encoding="UTF-8"?>
<svg width="202px" height="48px" viewBox="0 0 202 48" version="1.1" xmlns="http://www.w3.org/2000/svg" xmlns:xlink="http://www.w3.org/1999/xlink">
    <defs>
        <polygon id="path-1" points="0 0.182746988 47.8177735 0.182746988 47.8177735 48 0 48"></polygon>
    </defs>
    <g stroke="none" strokeWidth="1" fill="none" fill-rule="evenodd">
        <g>
            <mask fill="white">
                <use xlink:href="#path-1"></use>
            </mask>
            <path d="M-5.78313253e-05,5.60431807 C-5.78313253e-05,2.60981205 2.42712289,0.182631325 5.42162892,0.182631325 L42.3960867,0.182631325 C45.3905928,0.182631325 47.8177735,2.60981205 47.8177735,5.60431807 L47.8177735,42.5787759 C47.8177735,45.5727036 45.3905928,48.0004627 42.3960867,48.0004627 L5.42162892,48.0004627 C2.42712289,48.0004627 -5.78313253e-05,45.5727036 -5.78313253e-05,42.5787759 L-5.78313253e-05,5.60431807 Z" id="Fill-1" fill="#00A3E1" mask="url(#mask-2)"></path>
        </g>
        <path d="M8,28.3019589 C8,24.6028716 10.9105835,21.6039177 14.5006693,21.6039177 L24.2432879,21.6039177 L28.8679523,13.350091 C30.6635735,10.1467578 34.6388071,9.04859126 37.7483258,10.8987307 C40.8578444,12.7482743 41.9230728,16.8447989 40.1280299,20.048728 L33.6273606,31.6500856 C32.3799677,33.8762116 30.0794906,35.0858036 27.7483637,34.9952331 L27.5025862,35 L14.5006693,35 C10.9105835,35 8,32.0016419 8,28.3019589" id="Fill-4" fill="#FEFEFE"></path>
        <path d="M169.737636,26.5328505 C169.737636,37.0207805 167.092911,40.9996907 160.191867,40.9996907 C155.304875,40.9996907 150.244227,39.5567698 148.405005,38.6930164 L147.542594,40.6521902 L121.264889,40.6521902 L120.401892,37.8857098 C118.389601,38.9229195 114.191951,40.9996907 108.326386,40.9996907 C103.784358,40.9996907 100.621013,38.0003674 100.621013,31.6042412 C100.621013,29.2411201 100.966564,26.1294912 102.863867,24.9194132 C105.336697,23.3630108 110.339264,23.075485 120.114422,23.075485 L120.114422,20.1937591 C120.114422,18.9254704 119.826365,18.4650763 117.067239,18.4650763 C116.204828,18.4650763 102.700771,18.5591543 102.700771,18.5591543 L102.700771,12.7016245 C102.700771,12.7016245 112.237154,11.7796604 117.067239,11.7796604 C128.337242,11.7796604 131.384425,14.6607983 131.384425,20.8852322 L131.384425,32.9883634 L137.422472,32.9883634 L137.422472,12.7016245 L134.144725,12.7016245 L134.144725,4 L148.692475,4 L148.692475,15.2382018 C150.53287,14.3156497 156.052884,12.0677742 160.480511,12.0677742 C167.379794,12.0677742 169.737636,16.0443325 169.737636,26.5328505 L169.737636,26.5328505 Z M158.352645,26.648096 C158.352645,21.5772932 157.432154,20.5394956 155.075485,20.5394956 C151.91214,20.5394956 150.417296,20.8276094 148.692475,21.1733459 L148.692475,32.7572843 C150.072331,32.9295646 151.739658,33.1600557 155.075485,33.1600557 C157.202178,33.1600557 158.352645,31.5460304 158.352645,26.648096 L158.352645,26.648096 Z M120.114422,33.3899587 L120.114422,28.1462877 C116.261736,28.1462877 114.651903,28.2615332 113.041483,28.6072698 C112.237154,28.780138 111.892189,29.9325932 111.892189,31.2002939 C111.892189,33.2176784 112.524037,33.9673623 114.480007,33.9673623 C116.204828,33.9673623 118.848967,33.6780725 120.114422,33.3899587 L120.114422,33.3899587 Z M98.9278724,40.6521902 L88.7344157,40.6521902 L79.4350498,30.1683761 L75.4327614,32.9295646 L75.4327614,40.6521902 L64.1627583,40.6521902 L64.1627583,21.1157232 L61,21.1157232 L61,12.7016245 L75.4327614,12.7016245 L75.429828,23.39829 L83.0806406,18.1187518 L83.0806406,12.7016245 L96.2585068,12.7016245 L96.2585068,18.5591543 L87.7382436,24.4384396 L94.4116577,32.355101 L98.9284591,32.355101 L98.9278724,40.6521902 Z M202,31.9529177 C202,39.3833136 198.210674,40.9744073 186.5916,40.9998472 C180.439152,41.0132144 171.74406,40.1453451 171.74406,40.1453451 L171.754621,32.356277 L182.162213,32.356277 L182.162213,34.8340556 C183.024624,34.9493011 184.576962,35.0645466 186.301783,35.0645466 C190.672503,35.0645466 191.131868,34.7764328 191.131868,32.817259 C191.131868,31.1461991 190.901892,30.91512 184.002022,30.3394804 C172.904501,29.4163403 171.294668,27.573 171.294668,20.5994703 C171.294668,13.511871 176.239742,11.7249775 185.899912,11.7249775 C192.05236,11.7249775 200.746278,12.5799111 200.746278,12.5799111 L200.735131,18.5620942 C200.735131,18.5620942 192.795675,17.8912007 186.072394,17.8912007 C182.852142,17.8912007 181.989731,18.1793145 181.989731,19.8509624 C181.989731,21.7525135 182.795234,21.9253817 189.177071,22.3863638 C200.620143,23.2507052 202,24.2885028 202,31.9529177 L202,31.9529177 Z" fill="#002646"></path>
    </g>
</svg>
