<svg xmlns="http://www.w3.org/2000/svg" xmlns:xlink="http://www.w3.org/1999/xlink" width="112" height="19" viewBox="0 0 112 19"><defs><clipPath id="a"><rect width="62" height="14.837" fill="none"/></clipPath></defs><g transform="translate(-165 -115)"><g transform="translate(165 115)"><g transform="translate(0 0)" clip-path="url(#a)"><rect width="14.837" height="14.837" rx="1.518" transform="translate(0 0)" fill="#0096dc"/><path d="M2.263,8.485A2.017,2.017,0,0,1,4.28,6.467H7.3L8.739,3.982A2.017,2.017,0,1,1,12.232,6L10.216,9.493A2.017,2.017,0,0,1,8.391,10.5l-.076,0H4.28A2.017,2.017,0,0,1,2.263,8.485" transform="translate(0.244 0.32)" fill="#fff"/><path d="M60.161,10c0,2.268-1.159,2.753-4.713,2.761-1.881,0-4.541-.26-4.541-.26l0-2.378h3.183v.757a10.733,10.733,0,0,0,1.266.07c1.337,0,1.478-.088,1.478-.686,0-.51-.071-.581-2.181-.757-3.395-.281-3.887-.844-3.887-2.971,0-2.164,1.512-2.709,4.467-2.709,1.882,0,4.541.26,4.541.26l0,1.826s-2.429-.2-4.485-.2c-.985,0-1.249.089-1.249.6,0,.581.246.634,2.2.774,3.5.264,3.922.581,3.922,2.919M28.635,12.653H25.516l-2.844-3.2-1.224.843v2.357H18V6.692h-.967V4.124h4.414V7.388l2.341-1.611V4.124h4.031V5.911L25.211,7.706l2.042,2.416h1.382Zm6.48-2.216v-1.6a9.958,9.958,0,0,0-2.164.14c-.246.053-.351.4-.351.792,0,.615.193.844.791.844a9.85,9.85,0,0,0,1.724-.176m11.7-2.057c0-1.548-.281-1.865-1-1.865a8.392,8.392,0,0,0-1.952.194v3.535a13.566,13.566,0,0,0,1.952.122c.65,0,1-.492,1-1.986m3.482-.035c0,3.2-.809,4.415-2.919,4.415a10.059,10.059,0,0,1-3.606-.7l-.264.6H35.466l-.264-.844a7.838,7.838,0,0,1-3.693.951c-1.389,0-2.358-.915-2.358-2.867,0-.721.106-1.671.686-2.04.757-.475,2.287-.563,5.277-.563V6.41c0-.388-.089-.527-.932-.527-.264,0-4.4.028-4.4.028V4.124s2.917-.281,4.4-.281c3.447,0,4.378.88,4.378,2.779v3.694h1.847V4.124h-1V1.468h4.45V4.9a9.622,9.622,0,0,1,3.605-.968c2.111,0,2.832,1.214,2.832,4.415" transform="translate(1.838 0.158)" fill="#fff" fill-rule="evenodd"/></g></g><text transform="translate(255 128)" fill="#fff" font-size="18" font-family="Calibre-Light, Calibre" font-weight="300" letter-spacing="0.05em"><tspan x="-21.429" y="0">Prime</tspan></text></g></svg>