<svg id="XMLID_1246_" xmlns="http://www.w3.org/2000/svg" width="58.078" height="58.078" viewBox="0 0 58.078 58.078">
  <rect id="Rectangle_570" data-name="Rectangle 570" width="18" height="8" rx="1" transform="translate(0.039 4.829)" fill="#fff"/>
  <path id="XMLID_893_" d="M56.944,12.7a1.134,1.134,0,0,0,1.134-1.134V6.579a1.134,1.134,0,0,0-1.134-1.134h-4.31V1.134A1.134,1.134,0,0,0,51.5,0H46.508a1.134,1.134,0,0,0-1.134,1.134v4.31H42.651V1.134A1.134,1.134,0,0,0,41.517,0H36.526a1.134,1.134,0,0,0-1.134,1.134v4.31H32.669V1.134A1.134,1.134,0,0,0,31.534,0H26.543a1.134,1.134,0,0,0-1.134,1.134v4.31H22.687V1.134A1.134,1.134,0,0,0,21.552,0H16.561a1.134,1.134,0,0,0-1.134,1.134v4.31H12.7V1.134A1.134,1.134,0,0,0,11.57,0H6.579A1.134,1.134,0,0,0,5.445,1.134v4.31H1.134A1.134,1.134,0,0,0,0,6.579V11.57A1.134,1.134,0,0,0,1.134,12.7h4.31v2.722H1.134A1.134,1.134,0,0,0,0,16.561v4.991a1.134,1.134,0,0,0,1.134,1.134h4.31v2.722H1.134A1.134,1.134,0,0,0,0,26.543v4.991a1.134,1.134,0,0,0,1.134,1.134h4.31v2.722H1.134A1.134,1.134,0,0,0,0,36.526v4.991a1.134,1.134,0,0,0,1.134,1.134h4.31v2.722H1.134A1.134,1.134,0,0,0,0,46.508V51.5a1.134,1.134,0,0,0,1.134,1.134h4.31v4.31a1.134,1.134,0,0,0,1.134,1.134H11.57A1.134,1.134,0,0,0,12.7,56.944v-4.31h2.722v4.31a1.134,1.134,0,0,0,1.134,1.134h4.991a1.134,1.134,0,0,0,1.134-1.134v-4.31h2.722v4.31a1.134,1.134,0,0,0,1.134,1.134h4.991a1.134,1.134,0,0,0,1.134-1.134v-4.31h2.722v4.31a1.134,1.134,0,0,0,1.134,1.134h4.991a1.134,1.134,0,0,0,1.134-1.134v-4.31h2.722v4.31a1.134,1.134,0,0,0,1.134,1.134H51.5a1.134,1.134,0,0,0,1.134-1.134v-4.31h4.31A1.134,1.134,0,0,0,58.078,51.5V46.508a1.134,1.134,0,0,0-1.134-1.134h-4.31V42.651h4.31a1.134,1.134,0,0,0,1.134-1.134V36.526a1.134,1.134,0,0,0-1.134-1.134h-4.31V32.669h4.31a1.134,1.134,0,0,0,1.134-1.134V26.543a1.134,1.134,0,0,0-1.134-1.134h-4.31V22.687h4.31a1.134,1.134,0,0,0,1.134-1.134V16.561a1.134,1.134,0,0,0-1.134-1.134h-4.31V12.7Zm-9.3-10.436h2.722V5.445H47.642Zm8.167,5.445v2.722H42.651V7.713Zm-13.158,17.7V22.687h2.722v2.722Zm0,19.964V42.651h2.722v2.722Zm-7.26,0H32.669V42.651h2.722Zm-12.7,0V42.651h2.722v2.722Zm-7.26,0H12.7V42.651h2.722Zm0-12.7v2.722H12.7V32.669Zm0-19.964v2.722H12.7V12.7Zm7.26,0h2.722v2.722H22.687Zm12.7,0v2.722H32.669V12.7ZM45.373,17.7v2.722h-12.7V17.7Zm-4.991,17.7H37.66v-12.7h2.722Zm-7.713,0V32.669h2.722v2.722Zm-7.26,0H22.687V32.669h2.722ZM17.7,22.687h2.722v12.7H17.7Zm7.713,0v2.722H22.687V22.687ZM22.687,30.4V27.678h12.7V30.4Zm9.982-7.713h2.722v2.722H32.669ZM30.4,25.409H27.678V12.7H30.4ZM25.409,17.7v2.722H12.7V17.7ZM12.7,22.687h2.722v2.722H12.7Zm0,17.7V37.66h12.7v2.722Zm14.973-7.713H30.4v12.7H27.678Zm4.991,7.713V37.66h12.7v2.722Zm12.7-4.991H42.651V32.669h2.722Zm0-19.964H42.651V12.7h2.722ZM37.66,2.269h2.722V15.427H37.66Zm-9.982,0H30.4V5.445H27.678Zm7.713,5.445v2.722h-12.7V7.713ZM17.7,2.269h2.722V15.427H17.7Zm-9.982,0h2.722V5.445H7.713ZM2.269,7.713H15.427v2.722H2.269Zm0,12.7V17.7H5.445v2.722ZM7.713,12.7h2.722v12.7H7.713ZM2.269,27.678H15.427V30.4H2.269Zm0,12.7V37.66H5.445v2.722Zm5.445-7.713h2.722v12.7H7.713Zm2.722,23.14H7.713V52.633h2.722ZM2.269,50.364V47.642H15.427v2.722Zm18.149,5.445H17.7V42.651h2.722Zm9.982,0H27.678V52.633H30.4Zm-7.713-5.445V47.642h12.7v2.722Zm17.7,5.445H37.66V42.651h2.722Zm9.982,0H47.642V52.633h2.722Zm5.445-5.445H42.651V47.642H55.809Zm0-12.7v2.722H52.633V37.66Zm-5.445,7.713H47.642v-12.7h2.722ZM55.809,30.4H42.651V27.678H55.809Zm0-12.7v2.722H52.633V17.7Zm-5.445,7.713H47.642V12.7h2.722Z" fill="#909090"/>
  <rect id="Rectangle_571" data-name="Rectangle 571" width="18" height="8" rx="1" transform="translate(20.039 4.829)" fill="#fff"/>
  <rect id="Rectangle_572" data-name="Rectangle 572" width="18" height="8" rx="1" transform="translate(40.039 4.829)" fill="#fff"/>
</svg>
