<svg xmlns="http://www.w3.org/2000/svg" width="35.336" height="35.336" viewBox="0 0 35.336 35.336"><g transform="translate(0)"><g transform="translate(0 0)"><g transform="translate(0 0)"><path d="M31.833,20.336a17.2,17.2,0,0,0,9,4.762.69.69,0,1,0,.256-1.356,15.821,15.821,0,0,1-8.282-4.382,16,16,0,0,1-2.16-2.682,2.244,2.244,0,0,1,.2-2.749,2.313,2.313,0,0,1,2.737-.618,12.743,12.743,0,0,0,5.253,1.1,12.914,12.914,0,0,0,3.655-.544l5.362,1.571A15.7,15.7,0,0,1,43.844,17.4a.69.69,0,1,0,.424,1.314,17.336,17.336,0,0,0,6.879-4.2v7.84a15.826,15.826,0,0,1-4.114,1.384.69.69,0,1,0,.257,1.356,17.306,17.306,0,0,0,12.9-10.774.69.69,0,0,0-.043-.586l-4.1-7.291,1.607-.589a.69.69,0,1,0-.475-1.3l-1.151.422A17.145,17.145,0,0,0,56.169.625a.69.69,0,1,0-1.374.132,15.621,15.621,0,0,1-.126,3.964l-.926-.926a.69.69,0,0,0-.976.976l.947.947L49.19,6.93a.689.689,0,0,0-.462.334,11.475,11.475,0,0,1-9.9,5.764h-.048a11.354,11.354,0,0,1-4.639-.98,3.663,3.663,0,0,0-4.344.981,3.621,3.621,0,0,0-.311,4.392A17.385,17.385,0,0,0,31.833,20.336ZM55.3,19.36a15.98,15.98,0,0,1-2.776,2.219V12.967q.491-.621.925-1.289a17.33,17.33,0,0,0,1.837-3.766l3.5,6.213A15.786,15.786,0,0,1,55.3,19.36ZM49.779,8.2,54.115,7.04a16.139,16.139,0,0,1-4.9,7.356l-4.642-1.36q.391-.2.769-.422A12.848,12.848,0,0,0,49.779,8.2Z" transform="translate(-26.896 0)" fill="#fff"/><path d="M238.842,348.2a.691.691,0,1,0,.488-.2A.7.7,0,0,0,238.842,348.2Z" transform="translate(-222.17 -323.982)" fill="#fff"/><path d="M34.646,492H.69a.69.69,0,1,0,0,1.38H34.646a.69.69,0,1,0,0-1.38Z" transform="translate(0 -458.045)" fill="#fff"/><path d="M.69,429.381H34.646a.69.69,0,0,0,0-1.38H.69a.69.69,0,0,0,0,1.38Z" transform="translate(0 -398.462)" fill="#fff"/></g></g></g></svg>