<svg xmlns="http://www.w3.org/2000/svg" width="35.337" height="35.337" viewBox="0 0 35.337 35.337"><g transform="translate(0)"><g transform="translate(0)"><path d="M34.646,492H.69a.69.69,0,1,0,0,1.38H34.646a.69.69,0,1,0,0-1.38Z" transform="translate(0 -458.044)" fill="#fff"/><path d="M.69,429.38H34.646a.69.69,0,1,0,0-1.38H.69a.69.69,0,1,0,0,1.38Z" transform="translate(0 -398.461)" fill="#fff"/><path d="M181.513,151.033a.69.69,0,0,0-.69.69v6.056a.69.69,0,0,0,1.38,0v-.923l1.409,1.426a.69.69,0,1,0,.982-.97l-1.817-1.839,1.537-1.256a.69.69,0,0,0-.874-1.069l-1.238,1.011v-2.436A.69.69,0,0,0,181.513,151.033Z" transform="translate(-168.343 -140.609)" fill="#fff"/><path d="M260.867,194.883a1.127,1.127,0,0,1-.785-.316.69.69,0,0,0-.957.995,2.513,2.513,0,0,0,4.255-1.811v-4.262a.69.69,0,0,0-1.276-.364,2.513,2.513,0,1,0-.1,4.429v.2A1.134,1.134,0,0,1,260.867,194.883Zm0-2.44A1.133,1.133,0,1,1,262,191.3v.019A1.134,1.134,0,0,1,260.868,192.444Z" transform="translate(-240.524 -175.768)" fill="#fff"/><path d="M65.312,25.4H72.73a.69.69,0,0,0,0-1.38H65.312a1.461,1.461,0,0,1-1.424-1.786L67.127,8.037A1.454,1.454,0,0,1,68.552,6.9H83.1a1.454,1.454,0,0,1,1.424,1.136l3.239,14.195a1.461,1.461,0,0,1-1.424,1.786h-7.4a.69.69,0,1,0,0,1.38h7.4a2.841,2.841,0,0,0,2.77-3.473L85.873,7.73A2.827,2.827,0,0,0,83.1,5.521H78.586a3.451,3.451,0,1,0-5.518,0H68.552a2.827,2.827,0,0,0-2.77,2.209L62.543,21.925a2.841,2.841,0,0,0,2.77,3.473ZM73.757,3.451a2.071,2.071,0,1,1,2.071,2.071A2.073,2.073,0,0,1,73.757,3.451Z" transform="translate(-58.159)" fill="#fff"/><path d="M246.2,348.2a.69.69,0,1,0,.488-.2A.7.7,0,0,0,246.2,348.2Z" transform="translate(-229.022 -323.982)" fill="#fff"/></g></g></svg>