<svg xmlns="http://www.w3.org/2000/svg" width="56.884" height="56.884" viewBox="0 0 56.884 56.884">
  <g id="XMLID_1319_" transform="translate(0)">
    <g id="XMLID_2745_" transform="translate(0 0)">
      <g id="XMLID_2822_" transform="translate(9.733 9.676)">
        <g id="XMLID_3015_" transform="translate(22.327 0)">
          <g id="XMLID_3016_" transform="translate(0)">
            <path id="XMLID_485_" d="M293.827,102.3a1.107,1.107,0,0,1-.786-.325l-4.155-4.155a1.111,1.111,0,0,1,0-1.571l3.465-3.465-1.59-1.59a1.111,1.111,0,0,1,.567-1.875l10.994-2.2a1.111,1.111,0,0,1,1.308,1.308l-2.2,10.994a1.111,1.111,0,0,1-1.875.567L298.078,98.5l-3.465,3.465A1.108,1.108,0,0,1,293.827,102.3Zm-2.584-5.266,2.584,2.584,3.465-3.465a1.111,1.111,0,0,1,1.571,0l.793.793,1.468-7.324L293.8,91.085l.908.908a1.111,1.111,0,0,1,0,1.571Z" transform="translate(-288.561 -87.089)" fill="#fff"/>
          </g>
        </g>
        <g id="XMLID_3012_">
          <g id="XMLID_3013_">
            <path id="XMLID_482_" d="M97.431,102.295a1.107,1.107,0,0,1-.786-.325L93.18,98.5l-1.475,1.475a1.111,1.111,0,0,1-1.875-.567l-2.2-10.994a1.111,1.111,0,0,1,1.308-1.308l10.994,2.2a1.111,1.111,0,0,1,.567,1.875l-1.59,1.59,3.465,3.465a1.111,1.111,0,0,1,0,1.571l-4.155,4.155A1.107,1.107,0,0,1,97.431,102.295ZM93.18,95.822a1.107,1.107,0,0,1,.786.325l3.465,3.465,2.584-2.584-3.465-3.465a1.111,1.111,0,0,1,0-1.571l.908-.908-7.324-1.468L91.6,96.941l.793-.793A1.107,1.107,0,0,1,93.18,95.822Z" transform="translate(-87.605 -87.088)" fill="#fff"/>
          </g>
        </g>
        <g id="XMLID_3009_" transform="translate(22.327 22.327)">
          <g id="XMLID_3010_" transform="translate(0)">
            <path id="XMLID_479_" d="M302.542,303.251a1.1,1.1,0,0,1-.218-.022l-10.994-2.2a1.111,1.111,0,0,1-.567-1.875l1.59-1.59-3.465-3.465a1.111,1.111,0,0,1,0-1.571l4.155-4.155a1.111,1.111,0,0,1,1.571,0l3.465,3.465,1.475-1.475a1.111,1.111,0,0,1,1.875.567l2.2,10.994a1.111,1.111,0,0,1-1.089,1.329Zm-8.741-4,7.324,1.468-1.468-7.324-.793.793a1.111,1.111,0,0,1-1.571,0l-3.465-3.465-2.584,2.584,3.465,3.465a1.111,1.111,0,0,1,0,1.571Z" transform="translate(-288.561 -288.044)" fill="#fff"/>
          </g>
        </g>
        <g id="XMLID_3006_" transform="translate(0 22.327)">
          <g id="XMLID_3007_">
            <path id="XMLID_476_" d="M88.716,303.251a1.111,1.111,0,0,1-1.089-1.329l2.2-10.994a1.111,1.111,0,0,1,1.875-.567l1.475,1.475,3.465-3.465a1.111,1.111,0,0,1,1.571,0l4.155,4.155a1.111,1.111,0,0,1,0,1.571l-3.465,3.465,1.59,1.59a1.111,1.111,0,0,1-.567,1.875l-10.994,2.2A1.11,1.11,0,0,1,88.716,303.251ZM91.6,293.4l-1.468,7.324,7.324-1.468-.908-.908a1.111,1.111,0,0,1,0-1.571l3.465-3.465-2.584-2.584-3.465,3.465a1.111,1.111,0,0,1-1.571,0Z" transform="translate(-87.606 -288.044)" fill="#fff"/>
          </g>
        </g>
      </g>
      <g id="XMLID_2756_" transform="translate(0 0)">
        <path id="XMLID_475_" d="M55.773,56.884a1.11,1.11,0,0,1-.381-.067,78.618,78.618,0,0,0-53.9,0A1.111,1.111,0,0,1,.068,55.392a78.618,78.618,0,0,0,0-53.9A1.111,1.111,0,0,1,1.493.068a78.4,78.4,0,0,0,22.02,4.607,1.111,1.111,0,0,1-.139,2.218A80.673,80.673,0,0,1,2.919,2.919a80.854,80.854,0,0,1,0,51.046,80.854,80.854,0,0,1,51.046,0,80.854,80.854,0,0,1,0-51.046A80.655,80.655,0,0,1,33.508,6.892a1.111,1.111,0,0,1-.139-2.218A78.4,78.4,0,0,0,55.392.067a1.111,1.111,0,0,1,1.425,1.425,78.618,78.618,0,0,0,0,53.9,1.111,1.111,0,0,1-1.044,1.492Z" transform="translate(0 0)" fill="#fff"/>
      </g>
    </g>
    <g id="XMLID_1208_" transform="translate(27.331 4.829)">
      <path id="XMLID_474_" d="M247.112,45.683a1.112,1.112,0,1,1,.785-.326A1.115,1.115,0,0,1,247.112,45.683Z" transform="translate(-246.001 -43.461)" fill="#fff"/>
    </g>
  </g>
</svg>
