<svg id="XMLID_1700_" xmlns="http://www.w3.org/2000/svg" width="82.223" height="82.223" viewBox="0 0 82.223 82.223">
  <g id="XMLID_379_" transform="translate(0 0)">
    <path id="XMLID_408_" d="M81.753,43.015l-4.942-4.942,4.942-4.942a1.606,1.606,0,0,0,0-2.271L69.6,18.7a1.606,1.606,0,0,0-2.271,0l-4.942,4.942L58.577,19.84,63.519,14.9a1.606,1.606,0,0,0,0-2.271L51.364.471a1.607,1.607,0,0,0-2.271,0L44.15,5.413,39.208.471a1.607,1.607,0,0,0-2.271,0L31.995,5.413,27.053.471a1.607,1.607,0,0,0-2.271,0L19.839,5.413,14.9.471a1.607,1.607,0,0,0-2.271,0L.471,12.626a1.606,1.606,0,0,0,0,2.271L5.413,19.84.471,24.782a1.606,1.606,0,0,0,0,2.271L5.413,32,.471,36.937a1.606,1.606,0,0,0,0,2.271l4.942,4.942L.471,49.093a1.606,1.606,0,0,0,0,2.271L12.626,63.52a1.606,1.606,0,0,0,2.271,0l4.942-4.942,3.807,3.807L18.7,67.326a1.606,1.606,0,0,0,0,2.271L30.859,81.753a1.606,1.606,0,0,0,2.271,0l4.942-4.942,4.942,4.942a1.606,1.606,0,0,0,2.271,0l4.942-4.942,4.942,4.942a1.606,1.606,0,0,0,2.271,0l4.942-4.942,4.942,4.942a1.606,1.606,0,0,0,2.271,0l.968-.968a1.606,1.606,0,0,0-2.091-2.427L63.519,73.4a1.607,1.607,0,0,0-2.271,0l-4.942,4.942L51.364,73.4a1.607,1.607,0,0,0-2.271,0L44.15,78.346,39.208,73.4a1.607,1.607,0,0,0-2.271,0l-4.942,4.942L22.11,68.462l4.942-4.942a1.606,1.606,0,0,0,0-2.271L22.11,56.306l4.942-4.942a1.606,1.606,0,0,0,0-2.271L22.11,44.151l4.942-4.942a1.606,1.606,0,0,0,0-2.271L22.11,32l9.884-9.884,4.942,4.942a1.606,1.606,0,0,0,2.271,0l4.942-4.942,4.942,4.942a1.606,1.606,0,0,0,2.271,0l4.942-4.942,4.942,4.942a1.606,1.606,0,0,0,2.271,0l4.942-4.942L78.346,32,73.4,36.937a1.606,1.606,0,0,0,0,2.271l4.942,4.942L73.4,49.093a1.606,1.606,0,0,0,0,2.271l4.942,4.942L73.4,61.248a1.606,1.606,0,0,0,0,2.271l4.954,4.954a1.606,1.606,0,0,0,2.426,2.092l.969-.969a1.606,1.606,0,0,0,0-2.271L76.81,62.384l4.942-4.942a1.606,1.606,0,0,0,0-2.271L76.81,50.229l4.942-4.942a1.606,1.606,0,0,0,0-2.271ZM3.877,13.762l9.885-9.885,3.806,3.807L7.684,17.569Zm0,12.155,22.04-22.04,3.806,3.807L7.684,29.724Zm0,12.156,34.2-34.2,3.806,3.807-34.2,34.2ZM23.646,50.229l-9.885,9.884L9.955,56.306l9.884-9.885Zm0-12.155L7.684,54.035,3.877,50.229,19.839,34.266ZM38.073,23.647,34.266,19.84,50.228,3.877l3.807,3.807Zm12.156,0L46.422,19.84l9.884-9.885,3.807,3.807Z" transform="translate(0 -0.001)"/>
    <path id="XMLID_417_" d="M229.822,227.55a1.6,1.6,0,1,0,.471,1.135A1.617,1.617,0,0,0,229.822,227.55Z" transform="translate(-190.614 -190.612)"/>
    <path id="XMLID_419_" d="M305.511,227.55a1.6,1.6,0,1,0,.471,1.135A1.615,1.615,0,0,0,305.511,227.55Z" transform="translate(-254.148 -190.612)"/>
    <path id="XMLID_420_" d="M381.2,227.55a1.6,1.6,0,1,0,.471,1.135A1.617,1.617,0,0,0,381.2,227.55Z" transform="translate(-317.684 -190.612)"/>
    <path id="XMLID_421_" d="M229.822,303.24a1.6,1.6,0,1,0,.471,1.135A1.618,1.618,0,0,0,229.822,303.24Z" transform="translate(-190.614 -254.147)"/>
    <path id="XMLID_434_" d="M305.511,303.24a1.6,1.6,0,1,0,.471,1.135A1.618,1.618,0,0,0,305.511,303.24Z" transform="translate(-254.148 -254.147)"/>
    <path id="XMLID_437_" d="M381.2,303.24a1.6,1.6,0,1,0,.471,1.135A1.618,1.618,0,0,0,381.2,303.24Z" transform="translate(-317.684 -254.147)"/>
    <path id="XMLID_438_" d="M228.686,378.46a1.607,1.607,0,1,0,1.135.471A1.622,1.622,0,0,0,228.686,378.46Z" transform="translate(-190.613 -317.683)"/>
    <path id="XMLID_439_" d="M304.376,378.46a1.607,1.607,0,1,0,1.135.471A1.617,1.617,0,0,0,304.376,378.46Z" transform="translate(-254.148 -317.683)"/>
    <path id="XMLID_440_" d="M380.066,378.46a1.607,1.607,0,1,0,1.135.471A1.618,1.618,0,0,0,380.066,378.46Z" transform="translate(-317.683 -317.683)"/>
    <path id="XMLID_441_" d="M455.765,454.149a1.6,1.6,0,1,0,1.137.471A1.62,1.62,0,0,0,455.765,454.149Z" transform="translate(-381.227 -381.217)"/>
  </g>
</svg>
