<svg xmlns="http://www.w3.org/2000/svg" width="32.024" height="35.337" viewBox="0 0 32.024 35.337"><g transform="translate(0)"><g transform="translate(0 0)"><path d="M52.254,20.6a.69.69,0,1,0-1.346.308,14.4,14.4,0,0,0,3.555,6.66l-2.856,4.717a10.413,10.413,0,0,0-5.944-1.095A10.228,10.228,0,0,0,40.009,33.7a10.228,10.228,0,0,0-5.655-2.509,10.41,10.41,0,0,0-5.944,1.095l-2.856-4.717a14.459,14.459,0,0,0,0-19.8l2.409-3.979A8.3,8.3,0,0,0,36.549,1.38h6.92a8.3,8.3,0,0,0,6.186,2.764,8.289,8.289,0,0,0,2.4-.355l2.409,3.979a14.4,14.4,0,0,0-3.555,6.66.69.69,0,0,0,1.346.308,13.033,13.033,0,0,1,3.562-6.377.69.69,0,0,0,.106-.849L52.948,2.6a.69.69,0,0,0-.835-.288A6.923,6.923,0,0,1,44.318.25.69.69,0,0,0,43.786,0H36.233A.69.69,0,0,0,35.7.25a6.922,6.922,0,0,1-7.8,2.061.69.69,0,0,0-.835.288L24.1,7.51a.69.69,0,0,0,.106.849,13.078,13.078,0,0,1,0,18.618.69.69,0,0,0-.106.849l3.479,5.746a.69.69,0,0,0,.949.232,8.944,8.944,0,0,1,11,1.33.69.69,0,0,0,.976,0,8.945,8.945,0,0,1,11-1.33.69.69,0,0,0,.949-.232l3.479-5.746a.69.69,0,0,0-.106-.849A13.034,13.034,0,0,1,52.254,20.6Z" transform="translate(-23.997 0)" fill="#fff"/><path d="M409.806,247.178a.69.69,0,1,0-.488.2A.7.7,0,0,0,409.806,247.178Z" transform="translate(-382.082 -229.022)" fill="#fff"/><path d="M157.736,66.073a.688.688,0,0,0,.227-.039,11.371,11.371,0,0,0,1.87-.848.69.69,0,0,0-.682-1.2,9.983,9.983,0,0,1-1.642.745.69.69,0,0,0,.227,1.342Z" transform="translate(-147.863 -59.486)" fill="#fff"/><path d="M80.475,83.047c-.246-.011-.5-.031-.74-.06a.691.691,0,0,0-.672.328l-.682,1.126a.69.69,0,0,0,.04.774c.153.2.3.409.446.617a.69.69,0,1,0,1.138-.781q-.1-.146-.2-.291l.217-.359c.132.01.265.018.4.024a.69.69,0,1,0,.059-1.379Z" transform="translate(-74.536 -77.256)" fill="#fff"/><path d="M111.58,314.359a17.337,17.337,0,0,0,.59-1.752.69.69,0,0,0-1.33-.37,15.943,15.943,0,0,1-.543,1.612.69.69,0,1,0,1.283.51Z" transform="translate(-104.296 -290.217)" fill="#fff"/><path d="M128.424,235.634c.016-.305.024-.615.024-.922s-.008-.619-.024-.924a.69.69,0,1,0-1.378.071c.015.282.022.568.022.852s-.007.57-.022.851a.69.69,0,0,0,.654.725h.036a.69.69,0,0,0,.689-.655Z" transform="translate(-119.932 -217.043)" fill="#fff"/><path d="M110.29,156.829a15.946,15.946,0,0,1,.543,1.612.69.69,0,0,0,1.33-.37,17.328,17.328,0,0,0-.59-1.752.69.69,0,1,0-1.283.51Z" transform="translate(-104.289 -145.125)" fill="#fff"/><path d="M79.828,383.5a.69.69,0,0,0-.96.178c-.143.208-.293.415-.446.617a.69.69,0,0,0-.04.774l.948,1.566a.69.69,0,0,0,.8.3c.238-.074.482-.142.723-.2a.69.69,0,1,0-.328-1.341q-.142.035-.284.073l-.435-.718c.069-.1.137-.194.2-.29A.69.69,0,0,0,79.828,383.5Z" transform="translate(-74.536 -356.921)" fill="#fff"/><path d="M158.725,408.682c.214.013.43.031.642.056.358.041.719.1,1.073.173a.69.69,0,0,0,.281-1.351c-.4-.082-.8-.147-1.2-.193-.237-.027-.478-.048-.716-.062a.69.69,0,0,0-.082,1.378Z" transform="translate(-148.822 -379.192)" fill="#fff"/><path d="M237.835,430.122q-.174.1-.348.2-.173-.1-.348-.2a.69.69,0,0,0-.669,1.208c.217.12.435.25.645.384a.691.691,0,0,0,.742,0c.211-.134.428-.264.645-.384a.69.69,0,0,0-.669-1.208Z" transform="translate(-221.475 -400.356)" fill="#fff"/><path d="M310.087,407.3c-.238.014-.479.035-.716.062-.4.046-.8.111-1.2.193a.69.69,0,1,0,.282,1.351c.354-.074.715-.132,1.073-.173.212-.024.428-.043.641-.056a.69.69,0,1,0-.082-1.378Z" transform="translate(-288.048 -379.191)" fill="#fff"/><path d="M389.424,386.737c.242.059.485.127.723.2a.69.69,0,0,0,.8-.3l.948-1.566a.69.69,0,0,0-.04-.774c-.153-.2-.3-.409-.446-.617a.69.69,0,0,0-1.138.781q.1.145.2.291l-.435.718q-.142-.038-.284-.073a.69.69,0,0,0-.328,1.341Z" transform="translate(-363.713 -356.92)" fill="#fff"/><path d="M364.648,233.805c-.016.305-.024.615-.024.922s.008.619.024.924a.69.69,0,0,0,.689.654h.036a.69.69,0,0,0,.654-.725c-.015-.281-.022-.568-.022-.852s.007-.57.022-.851a.69.69,0,1,0-1.378-.071Z" transform="translate(-341.115 -217.059)" fill="#fff"/><path d="M374.153,156.332a17.333,17.333,0,0,0-.59,1.752.69.69,0,1,0,1.33.37,15.945,15.945,0,0,1,.543-1.612.69.69,0,1,0-1.283-.51Z" transform="translate(-349.413 -145.137)" fill="#fff"/><path d="M374.158,314.374a.69.69,0,1,0,1.283-.51,15.956,15.956,0,0,1-.543-1.612.69.69,0,1,0-1.33.37A17.308,17.308,0,0,0,374.158,314.374Z" transform="translate(-349.418 -290.231)" fill="#fff"/><path d="M393.685,86.012a.69.69,0,0,0,.96-.178c.143-.208.293-.416.446-.617a.69.69,0,0,0,.04-.774l-.682-1.126a.69.69,0,0,0-.672-.328c-.244.029-.493.049-.74.06a.69.69,0,1,0,.059,1.379c.132-.006.264-.014.4-.024l.217.359q-.1.145-.2.291A.69.69,0,0,0,393.685,86.012Z" transform="translate(-366.953 -77.257)" fill="#fff"/><path d="M312.179,64.733a9.986,9.986,0,0,1-1.642-.745.69.69,0,1,0-.682,1.2,11.364,11.364,0,0,0,1.87.848.69.69,0,0,0,.454-1.3Z" transform="translate(-289.801 -59.488)" fill="#fff"/><path d="M236.67,44h-1.6a.69.69,0,1,0,0,1.38h1.6a.69.69,0,1,0,0-1.38Z" transform="translate(-219.855 -40.963)" fill="#fff"/></g></g></svg>